# xmcd CD database file
#
# Track frame offsets:
#	150
#	14511
#	29899
#	40826
#	62124
#	75647
#	89805
#	111995
#	127491
#	148550
#	162997
#	174364
#	186019
#	200297
#	209254
#	221518
#
# Disc length: 3082 seconds
#
# Revision: 0
# Processed by: cddbd v1.5.1PL0 Copyright (c) Steve Scherf et al.
# Submitted via: CDex 1.51
#
DISCID=f30c0810
DTITLE=Big Bill Broonzy - Blues is my Business
DYEAR=2003
DGENRE=Blues
TTITLE0=Baby please don't go
TTITLE1=In the evening (when the sun goes down)
TTITLE2=St. Louis Blues
TTITLE3=Feelin' lowdown
TTITLE4=See see rider
TTITLE5=All I got belongs to you
TTITLE6=Ridin' on down
TTITLE7=Nobody knows the trouble I've seen
TTITLE8=I got up one mornin' blues
TTITLE9=Treat everybody right
TTITLE10=Down by the riverside
TTITLE11=Black, brown and white
TTITLE12=This train (bound for glory)
TTITLE13=Midnight special
TTITLE14=I get the blues when it rains
TTITLE15=House rent stomp
EXTD=YEAR: 2003
EXTT0=
EXTT1=
EXTT2=
EXTT3=
EXTT4=
EXTT5=
EXTT6=
EXTT7=
EXTT8=
EXTT9=
EXTT10=
EXTT11=
EXTT12=
EXTT13=
EXTT14=
EXTT15=
PLAYORDER=
